<svg width="40" height="39" xmlns="http://www.w3.org/2000/svg" class="bi bi-person-circle">

 <g>
  <title>background</title>
  <rect fill="none" id="canvas_background" height="41" width="42" y="-1" x="-1"/>
 </g>
 <g>
  <title>Layer 1</title>
  <path stroke-width="0" id="svg_1" d="m33.35448,30.318848c-1.743962,-2.809989 -5.583135,-5.821394 -13.430964,-5.821394s-11.684545,3.008949 -13.430964,5.821394a17.16206,17.16206 0 0 0 13.430964,6.460028a17.16206,17.16206 0 0 0 13.430964,-6.460028z"/>
  <path stroke-width="0" id="svg_2" d="m20,22.425926a7.444336,7.444336 0 1 0 0,-14.888671a7.444336,7.444336 0 0 0 0,14.888671z" fill-rule="evenodd"/>
  <path stroke-width="0" id="svg_3" d="m19.911089,2.512525a16.965278,16.965278 0 1 0 0,33.930556a16.965278,16.965278 0 0 0 0,-33.930556zm-19.388889,16.965278a19.388889,19.388889 0 1 1 38.777778,0a19.388889,19.388889 0 0 1 -38.777778,0z" fill-rule="evenodd"/>
 </g>
</svg>